<?xml version="1.0" encoding="UTF-8"?>
<svg width="40" height="40" viewBox="0 0 40 40" fill="none" xmlns="http://www.w3.org/2000/svg">
  <!-- Background gradient -->
  <defs>
    <linearGradient id="gridGradient" x1="0" y1="0" x2="40" y2="40" gradientUnits="userSpaceOnUse">
      <stop offset="0%" style="stop-color:#14F195"/>
      <stop offset="100%" style="stop-color:#9945FF"/>
    </linearGradient>
    <filter id="neonGlow" x="-20%" y="-20%" width="140%" height="140%">
      <feGaussianBlur in="SourceGraphic" stdDeviation="1" result="blur"/>
      <feColorMatrix in="blur" type="matrix" values="
        1 0 0 0 0
        0 1 0 0 0
        0 0 1 0 0
        0 0 0 15 -7
      "/>
    </filter>
  </defs>

  <!-- Main container with rounded corners -->
  <rect x="4" y="4" width="32" height="32" rx="8" fill="url(#gridGradient)" filter="url(#neonGlow)"/>

  <!-- Grid pattern -->
  <g opacity="0.9" stroke="white" stroke-width="1.5">
    <!-- Horizontal lines -->
    <line x1="10" y1="14" x2="30" y2="14" stroke-linecap="round"/>
    <line x1="10" y1="20" x2="30" y2="20" stroke-linecap="round"/>
    <line x1="10" y1="26" x2="30" y2="26" stroke-linecap="round"/>
    
    <!-- Vertical lines -->
    <line x1="14" y1="10" x2="14" y2="30" stroke-linecap="round"/>
    <line x1="20" y1="10" x2="20" y2="30" stroke-linecap="round"/>
    <line x1="26" y1="10" x2="26" y2="30" stroke-linecap="round"/>
  </g>

  <!-- Glowing dots at intersections -->
  <g fill="white" filter="url(#neonGlow)">
    <circle cx="14" cy="14" r="1.5"/>
    <circle cx="20" cy="14" r="1.5"/>
    <circle cx="26" cy="14" r="1.5"/>
    <circle cx="14" cy="20" r="1.5"/>
    <circle cx="20" cy="20" r="2"/>
    <circle cx="26" cy="20" r="1.5"/>
    <circle cx="14" cy="26" r="1.5"/>
    <circle cx="20" cy="26" r="1.5"/>
    <circle cx="26" cy="26" r="1.5"/>
  </g>
</svg>
